<mxfile host="app.diagrams.net" agent="Mozilla/5.0 (Macintosh; Intel Mac OS X 10_15_7) AppleWebKit/605.1.15 (KHTML, like Gecko) Version/16.3 Safari/605.1.15" version="26.1.0">
  <diagram id="C5RBs43oDa-KdzZeNtuy" name="Page-1">
    <mxGraphModel dx="1272" dy="1905" grid="1" gridSize="10" guides="1" tooltips="1" connect="1" arrows="1" fold="1" page="1" pageScale="1" pageWidth="827" pageHeight="1169" math="0" shadow="0">
      <root>
        <mxCell id="WIyWlLk6GJQsqaUBKTNV-0" />
        <mxCell id="WIyWlLk6GJQsqaUBKTNV-1" parent="WIyWlLk6GJQsqaUBKTNV-0" />
        <mxCell id="yfXTXG1W8DZTWPLikep3-21" style="edgeStyle=orthogonalEdgeStyle;rounded=0;orthogonalLoop=1;jettySize=auto;html=1;exitX=0.5;exitY=1;exitDx=0;exitDy=0;" edge="1" parent="WIyWlLk6GJQsqaUBKTNV-1" source="yfXTXG1W8DZTWPLikep3-0" target="yfXTXG1W8DZTWPLikep3-7">
          <mxGeometry relative="1" as="geometry" />
        </mxCell>
        <mxCell id="yfXTXG1W8DZTWPLikep3-0" value="&lt;font style=&quot;font-size: 15px;&quot;&gt;Inicio&lt;/font&gt;" style="ellipse;whiteSpace=wrap;html=1;" vertex="1" parent="WIyWlLk6GJQsqaUBKTNV-1">
          <mxGeometry x="160" y="-90" width="120" height="80" as="geometry" />
        </mxCell>
        <mxCell id="yfXTXG1W8DZTWPLikep3-5" value="Instruções" style="shape=hexagon;perimeter=hexagonPerimeter2;whiteSpace=wrap;html=1;fixedSize=1;fontSize=15;" vertex="1" parent="WIyWlLk6GJQsqaUBKTNV-1">
          <mxGeometry y="70" width="120" height="80" as="geometry" />
        </mxCell>
        <mxCell id="yfXTXG1W8DZTWPLikep3-27" style="edgeStyle=orthogonalEdgeStyle;rounded=0;orthogonalLoop=1;jettySize=auto;html=1;exitX=0.5;exitY=1;exitDx=0;exitDy=0;" edge="1" parent="WIyWlLk6GJQsqaUBKTNV-1" source="yfXTXG1W8DZTWPLikep3-7" target="yfXTXG1W8DZTWPLikep3-8">
          <mxGeometry relative="1" as="geometry" />
        </mxCell>
        <mxCell id="yfXTXG1W8DZTWPLikep3-50" style="edgeStyle=orthogonalEdgeStyle;rounded=0;orthogonalLoop=1;jettySize=auto;html=1;exitX=1;exitY=0.5;exitDx=0;exitDy=0;entryX=0;entryY=0.5;entryDx=0;entryDy=0;" edge="1" parent="WIyWlLk6GJQsqaUBKTNV-1" source="yfXTXG1W8DZTWPLikep3-7">
          <mxGeometry relative="1" as="geometry">
            <mxPoint x="320" y="110" as="targetPoint" />
          </mxGeometry>
        </mxCell>
        <mxCell id="yfXTXG1W8DZTWPLikep3-7" value="&lt;font style=&quot;font-size: 15px;&quot;&gt;Menu&lt;/font&gt;" style="shape=parallelogram;perimeter=parallelogramPerimeter;whiteSpace=wrap;html=1;fixedSize=1;" vertex="1" parent="WIyWlLk6GJQsqaUBKTNV-1">
          <mxGeometry x="160" y="80" width="120" height="60" as="geometry" />
        </mxCell>
        <mxCell id="yfXTXG1W8DZTWPLikep3-28" style="edgeStyle=orthogonalEdgeStyle;rounded=0;orthogonalLoop=1;jettySize=auto;html=1;exitX=0.5;exitY=1;exitDx=0;exitDy=0;" edge="1" parent="WIyWlLk6GJQsqaUBKTNV-1" source="yfXTXG1W8DZTWPLikep3-8" target="yfXTXG1W8DZTWPLikep3-9">
          <mxGeometry relative="1" as="geometry" />
        </mxCell>
        <mxCell id="yfXTXG1W8DZTWPLikep3-8" value="&lt;font style=&quot;font-size: 15px;&quot;&gt;Escolha de idioma&lt;/font&gt;" style="shape=hexagon;perimeter=hexagonPerimeter2;whiteSpace=wrap;html=1;fixedSize=1;" vertex="1" parent="WIyWlLk6GJQsqaUBKTNV-1">
          <mxGeometry x="160" y="200" width="120" height="80" as="geometry" />
        </mxCell>
        <mxCell id="yfXTXG1W8DZTWPLikep3-29" style="edgeStyle=orthogonalEdgeStyle;rounded=0;orthogonalLoop=1;jettySize=auto;html=1;exitX=0.5;exitY=1;exitDx=0;exitDy=0;" edge="1" parent="WIyWlLk6GJQsqaUBKTNV-1" source="yfXTXG1W8DZTWPLikep3-9" target="yfXTXG1W8DZTWPLikep3-12">
          <mxGeometry relative="1" as="geometry" />
        </mxCell>
        <mxCell id="yfXTXG1W8DZTWPLikep3-9" value="&lt;font style=&quot;font-size: 15px;&quot;&gt;Tela de start&lt;/font&gt;" style="shape=hexagon;perimeter=hexagonPerimeter2;whiteSpace=wrap;html=1;fixedSize=1;" vertex="1" parent="WIyWlLk6GJQsqaUBKTNV-1">
          <mxGeometry x="160" y="340" width="120" height="80" as="geometry" />
        </mxCell>
        <mxCell id="yfXTXG1W8DZTWPLikep3-30" style="edgeStyle=orthogonalEdgeStyle;rounded=0;orthogonalLoop=1;jettySize=auto;html=1;exitX=0.5;exitY=1;exitDx=0;exitDy=0;entryX=0.5;entryY=0;entryDx=0;entryDy=0;" edge="1" parent="WIyWlLk6GJQsqaUBKTNV-1" source="yfXTXG1W8DZTWPLikep3-12" target="yfXTXG1W8DZTWPLikep3-15">
          <mxGeometry relative="1" as="geometry" />
        </mxCell>
        <mxCell id="yfXTXG1W8DZTWPLikep3-12" value="Novo Tabuleiro" style="rounded=0;whiteSpace=wrap;html=1;" vertex="1" parent="WIyWlLk6GJQsqaUBKTNV-1">
          <mxGeometry x="160" y="480" width="120" height="60" as="geometry" />
        </mxCell>
        <mxCell id="yfXTXG1W8DZTWPLikep3-54" style="edgeStyle=orthogonalEdgeStyle;rounded=0;orthogonalLoop=1;jettySize=auto;html=1;exitX=0.5;exitY=1;exitDx=0;exitDy=0;entryX=0.5;entryY=0;entryDx=0;entryDy=0;" edge="1" parent="WIyWlLk6GJQsqaUBKTNV-1" source="yfXTXG1W8DZTWPLikep3-14" target="yfXTXG1W8DZTWPLikep3-53">
          <mxGeometry relative="1" as="geometry" />
        </mxCell>
        <mxCell id="yfXTXG1W8DZTWPLikep3-14" value="Selecionar cor" style="shape=parallelogram;perimeter=parallelogramPerimeter;whiteSpace=wrap;html=1;fixedSize=1;" vertex="1" parent="WIyWlLk6GJQsqaUBKTNV-1">
          <mxGeometry x="160" y="720" width="120" height="60" as="geometry" />
        </mxCell>
        <mxCell id="yfXTXG1W8DZTWPLikep3-31" style="edgeStyle=orthogonalEdgeStyle;rounded=0;orthogonalLoop=1;jettySize=auto;html=1;exitX=0.5;exitY=1;exitDx=0;exitDy=0;" edge="1" parent="WIyWlLk6GJQsqaUBKTNV-1" source="yfXTXG1W8DZTWPLikep3-15" target="yfXTXG1W8DZTWPLikep3-14">
          <mxGeometry relative="1" as="geometry" />
        </mxCell>
        <mxCell id="yfXTXG1W8DZTWPLikep3-15" value="Selecionar posição" style="shape=parallelogram;perimeter=parallelogramPerimeter;whiteSpace=wrap;html=1;fixedSize=1;" vertex="1" parent="WIyWlLk6GJQsqaUBKTNV-1">
          <mxGeometry x="160" y="600" width="120" height="60" as="geometry" />
        </mxCell>
        <mxCell id="yfXTXG1W8DZTWPLikep3-33" style="edgeStyle=orthogonalEdgeStyle;rounded=0;orthogonalLoop=1;jettySize=auto;html=1;exitX=1;exitY=0.5;exitDx=0;exitDy=0;entryX=0;entryY=0.5;entryDx=0;entryDy=0;" edge="1" parent="WIyWlLk6GJQsqaUBKTNV-1" source="yfXTXG1W8DZTWPLikep3-16" target="yfXTXG1W8DZTWPLikep3-18">
          <mxGeometry relative="1" as="geometry">
            <Array as="points">
              <mxPoint x="320" y="1080" />
              <mxPoint x="320" y="900" />
            </Array>
          </mxGeometry>
        </mxCell>
        <mxCell id="yfXTXG1W8DZTWPLikep3-16" value="Todos os campos Preenchidos?" style="rhombus;whiteSpace=wrap;html=1;" vertex="1" parent="WIyWlLk6GJQsqaUBKTNV-1">
          <mxGeometry x="157.5" y="1020" width="125" height="120" as="geometry" />
        </mxCell>
        <mxCell id="yfXTXG1W8DZTWPLikep3-45" style="edgeStyle=orthogonalEdgeStyle;rounded=0;orthogonalLoop=1;jettySize=auto;html=1;exitX=1;exitY=0.5;exitDx=0;exitDy=0;" edge="1" parent="WIyWlLk6GJQsqaUBKTNV-1" source="yfXTXG1W8DZTWPLikep3-18" target="yfXTXG1W8DZTWPLikep3-19">
          <mxGeometry relative="1" as="geometry" />
        </mxCell>
        <mxCell id="yfXTXG1W8DZTWPLikep3-47" style="edgeStyle=orthogonalEdgeStyle;rounded=0;orthogonalLoop=1;jettySize=auto;html=1;exitX=0.5;exitY=0;exitDx=0;exitDy=0;entryX=0.5;entryY=1;entryDx=0;entryDy=0;" edge="1" parent="WIyWlLk6GJQsqaUBKTNV-1" source="yfXTXG1W8DZTWPLikep3-18" target="yfXTXG1W8DZTWPLikep3-20">
          <mxGeometry relative="1" as="geometry" />
        </mxCell>
        <mxCell id="yfXTXG1W8DZTWPLikep3-18" value="Todos os campos Corretos?" style="rhombus;whiteSpace=wrap;html=1;" vertex="1" parent="WIyWlLk6GJQsqaUBKTNV-1">
          <mxGeometry x="400" y="840" width="125" height="120" as="geometry" />
        </mxCell>
        <mxCell id="yfXTXG1W8DZTWPLikep3-19" value="Tela de vencedor!" style="shape=parallelogram;perimeter=parallelogramPerimeter;whiteSpace=wrap;html=1;fixedSize=1;" vertex="1" parent="WIyWlLk6GJQsqaUBKTNV-1">
          <mxGeometry x="600" y="870" width="120" height="60" as="geometry" />
        </mxCell>
        <mxCell id="yfXTXG1W8DZTWPLikep3-44" style="edgeStyle=orthogonalEdgeStyle;rounded=0;orthogonalLoop=1;jettySize=auto;html=1;exitX=1;exitY=0.5;exitDx=0;exitDy=0;" edge="1" parent="WIyWlLk6GJQsqaUBKTNV-1" source="yfXTXG1W8DZTWPLikep3-20">
          <mxGeometry relative="1" as="geometry">
            <mxPoint x="790" y="750.5714285714289" as="targetPoint" />
          </mxGeometry>
        </mxCell>
        <mxCell id="yfXTXG1W8DZTWPLikep3-20" value="Tela de tente novamente" style="shape=parallelogram;perimeter=parallelogramPerimeter;whiteSpace=wrap;html=1;fixedSize=1;" vertex="1" parent="WIyWlLk6GJQsqaUBKTNV-1">
          <mxGeometry x="402.5" y="720" width="120" height="60" as="geometry" />
        </mxCell>
        <mxCell id="yfXTXG1W8DZTWPLikep3-38" value="" style="endArrow=classic;html=1;rounded=0;exitX=0;exitY=0.5;exitDx=0;exitDy=0;entryX=0;entryY=0.5;entryDx=0;entryDy=0;" edge="1" parent="WIyWlLk6GJQsqaUBKTNV-1" source="yfXTXG1W8DZTWPLikep3-16" target="yfXTXG1W8DZTWPLikep3-15">
          <mxGeometry width="50" height="50" relative="1" as="geometry">
            <mxPoint x="380" y="810" as="sourcePoint" />
            <mxPoint x="430" y="760" as="targetPoint" />
            <Array as="points">
              <mxPoint x="100" y="1080" />
              <mxPoint x="100" y="630" />
            </Array>
          </mxGeometry>
        </mxCell>
        <mxCell id="yfXTXG1W8DZTWPLikep3-43" value="" style="endArrow=classic;html=1;rounded=0;exitX=1;exitY=0.5;exitDx=0;exitDy=0;" edge="1" parent="WIyWlLk6GJQsqaUBKTNV-1" source="yfXTXG1W8DZTWPLikep3-19">
          <mxGeometry width="50" height="50" relative="1" as="geometry">
            <mxPoint x="650" y="510" as="sourcePoint" />
            <mxPoint x="220" y="20" as="targetPoint" />
            <Array as="points">
              <mxPoint x="790" y="900" />
              <mxPoint x="790" y="20" />
            </Array>
          </mxGeometry>
        </mxCell>
        <mxCell id="yfXTXG1W8DZTWPLikep3-49" value="" style="endArrow=classic;startArrow=classic;html=1;rounded=0;exitX=1;exitY=0.5;exitDx=0;exitDy=0;" edge="1" parent="WIyWlLk6GJQsqaUBKTNV-1" source="yfXTXG1W8DZTWPLikep3-5" target="yfXTXG1W8DZTWPLikep3-7">
          <mxGeometry width="50" height="50" relative="1" as="geometry">
            <mxPoint x="560" y="310" as="sourcePoint" />
            <mxPoint x="610" y="260" as="targetPoint" />
          </mxGeometry>
        </mxCell>
        <mxCell id="yfXTXG1W8DZTWPLikep3-51" value="&lt;font style=&quot;font-size: 15px;&quot;&gt;Sair/Fim&lt;/font&gt;" style="ellipse;whiteSpace=wrap;html=1;" vertex="1" parent="WIyWlLk6GJQsqaUBKTNV-1">
          <mxGeometry x="320" y="70" width="120" height="80" as="geometry" />
        </mxCell>
        <mxCell id="yfXTXG1W8DZTWPLikep3-56" style="edgeStyle=orthogonalEdgeStyle;rounded=0;orthogonalLoop=1;jettySize=auto;html=1;exitX=0.5;exitY=1;exitDx=0;exitDy=0;entryX=0.5;entryY=0;entryDx=0;entryDy=0;" edge="1" parent="WIyWlLk6GJQsqaUBKTNV-1" source="yfXTXG1W8DZTWPLikep3-53" target="yfXTXG1W8DZTWPLikep3-16">
          <mxGeometry relative="1" as="geometry" />
        </mxCell>
        <mxCell id="yfXTXG1W8DZTWPLikep3-58" style="edgeStyle=orthogonalEdgeStyle;rounded=0;orthogonalLoop=1;jettySize=auto;html=1;exitX=0;exitY=0.5;exitDx=0;exitDy=0;" edge="1" parent="WIyWlLk6GJQsqaUBKTNV-1" source="yfXTXG1W8DZTWPLikep3-53">
          <mxGeometry relative="1" as="geometry">
            <mxPoint x="100" y="899.8461538461538" as="targetPoint" />
          </mxGeometry>
        </mxCell>
        <mxCell id="yfXTXG1W8DZTWPLikep3-53" value="Confirma a jogada?" style="rhombus;whiteSpace=wrap;html=1;" vertex="1" parent="WIyWlLk6GJQsqaUBKTNV-1">
          <mxGeometry x="157.5" y="840" width="125" height="120" as="geometry" />
        </mxCell>
        <mxCell id="yfXTXG1W8DZTWPLikep3-59" value="&lt;font style=&quot;font-size: 15px;&quot;&gt;Sim&lt;/font&gt;" style="text;html=1;align=center;verticalAlign=middle;whiteSpace=wrap;rounded=0;" vertex="1" parent="WIyWlLk6GJQsqaUBKTNV-1">
          <mxGeometry x="530" y="870" width="60" height="30" as="geometry" />
        </mxCell>
        <mxCell id="yfXTXG1W8DZTWPLikep3-60" value="&lt;font style=&quot;font-size: 15px;&quot;&gt;Não&lt;/font&gt;" style="text;html=1;align=center;verticalAlign=middle;whiteSpace=wrap;rounded=0;" vertex="1" parent="WIyWlLk6GJQsqaUBKTNV-1">
          <mxGeometry x="414" y="800" width="60" height="30" as="geometry" />
        </mxCell>
        <mxCell id="yfXTXG1W8DZTWPLikep3-61" value="&lt;font style=&quot;font-size: 15px;&quot;&gt;Sim&lt;/font&gt;" style="text;html=1;align=center;verticalAlign=middle;whiteSpace=wrap;rounded=0;" vertex="1" parent="WIyWlLk6GJQsqaUBKTNV-1">
          <mxGeometry x="170" y="970" width="60" height="30" as="geometry" />
        </mxCell>
        <mxCell id="yfXTXG1W8DZTWPLikep3-62" value="&lt;font style=&quot;font-size: 15px;&quot;&gt;Não&lt;/font&gt;" style="text;html=1;align=center;verticalAlign=middle;whiteSpace=wrap;rounded=0;" vertex="1" parent="WIyWlLk6GJQsqaUBKTNV-1">
          <mxGeometry x="110" y="870" width="60" height="30" as="geometry" />
        </mxCell>
        <mxCell id="yfXTXG1W8DZTWPLikep3-63" value="&lt;font style=&quot;font-size: 15px;&quot;&gt;Sim&lt;/font&gt;" style="text;html=1;align=center;verticalAlign=middle;whiteSpace=wrap;rounded=0;" vertex="1" parent="WIyWlLk6GJQsqaUBKTNV-1">
          <mxGeometry x="270" y="1050" width="60" height="30" as="geometry" />
        </mxCell>
        <mxCell id="yfXTXG1W8DZTWPLikep3-64" value="&lt;font style=&quot;font-size: 15px;&quot;&gt;Não&lt;/font&gt;" style="text;html=1;align=center;verticalAlign=middle;whiteSpace=wrap;rounded=0;" vertex="1" parent="WIyWlLk6GJQsqaUBKTNV-1">
          <mxGeometry x="100" y="1050" width="60" height="30" as="geometry" />
        </mxCell>
      </root>
    </mxGraphModel>
  </diagram>
</mxfile>
